Coordinates
version=1
nRows=5
nColumns=63
inDegrees=yes

Units are S.I. units (second, meters, Newtons, ...)
If the header above contains a line with 'inDegrees', this indicates whether rotational values are in degrees (yes) or radians (no).

endheader
time	pelvis_tilt	pelvis_list	pelvis_rotation	pelvis_tx	pelvis_ty	pelvis_tz	hip_flexion_r	hip_adduction_r	hip_rotation_r	knee_angle_r	knee_angle_r_beta	ankle_angle_r	subtalar_angle_r	mtp_angle_r	hip_flexion_l	hip_adduction_l	hip_rotation_l	knee_angle_l	knee_angle_l_beta	ankle_angle_l	subtalar_angle_l	mtp_angle_l	L5_S1_Flex_Ext	L5_S1_Lat_Bending	L5_S1_axial_rotation	L4_L5_Flex_Ext	L4_L5_Lat_Bending	L4_L5_axial_rotation	L3_L4_Flex_Ext	L3_L4_Lat_Bending	L3_L4_axial_rotation	L2_L3_Flex_Ext	L2_L3_Lat_Bending	L2_L3_axial_rotation	L1_L2_Flex_Ext	L1_L2_Lat_Bending	L1_L2_axial_rotation	L1_T12_Flex_Ext	L1_T12_Lat_Bending	L1_T12_axial_rotation	Abs_r3	Abs_r2	Abs_r1	Abs_t1	Abs_t2	neck_flexion	neck_bending	neck_rotation	arm_flex_r	arm_add_r	arm_rot_r	elbow_flex_r	pro_sup_r	wrist_flex_r	wrist_dev_r	arm_flex_l	arm_add_l	arm_rot_l	elbow_flex_l	pro_sup_l	wrist_flex_l	wrist_dev_l
      7.76700000	    -64.81346582	     -8.15456310	     -6.21021787	     -0.31057722	      1.14062439	      0.03703501	    122.07573340	     -6.11280074	     -9.91861495	     99.35364532	      1.73404823	     25.49842462	     -4.45932093	      0.00000000	     92.42170891	    -10.87170485	      3.02024444	     42.24831228	      0.73737215	     -2.50743332	     -1.06273043	      0.00000000	     -0.10060508	      1.90633872	      1.22112602	     -0.18683369	      2.53543050	      1.29744639	     -0.16528408	      4.63507196	      1.29744639	     -0.11498154	      4.63507196	      1.06848526	     -0.09342188	      3.88740592	      0.99216489	     -0.05748574	      2.95291868	      0.91584451	     -0.71861202	     21.56488485	      6.79153656	      0.00000000	      0.00000000	      0.00000000	      0.00000000	      0.00000000	     69.97311669	    -11.88134845	      9.12006589	     49.73790014	     67.27134948	      0.00000000	      5.00000014	     62.23021981	     -6.18613057	     -1.13912101	     44.54062406	     65.81675549	      0.00000000	      5.00000014
      7.77500000	    -64.85608698	     -8.40088413	     -5.92654121	     -0.31050162	      1.14124369	      0.03677310	    122.12145277	     -6.51874362	    -10.23384791	     97.46046131	      1.70100594	     25.47252100	     -4.19515134	      0.00000000	     92.84112388	    -10.64452394	      3.64209859	     44.47538968	      0.77624199	     -2.37391916	     -1.34458848	      0.00000000	     -0.10001446	      1.94171230	      1.16985955	     -0.18573686	      2.58247736	      1.24297577	     -0.16431376	      4.72107929	      1.24297577	     -0.11430653	      4.72107929	      1.02362711	     -0.09287343	      3.95953973	      0.95051088	     -0.05714826	      3.00771236	      0.87739466	     -0.71439330	     21.96503791	      6.50640786	      0.00000000	      0.00000000	      0.00000000	      0.00000000	      0.00000000	     70.17153323	    -11.81031011	      9.09613006	     49.49316903	     67.23378668	      0.00000000	      5.00000014	     62.32677965	     -6.07710992	     -1.30600566	     44.26439584	     65.78029147	      0.00000000	      5.00000014
      7.78300000	    -64.87705182	     -8.63882768	     -5.49656375	     -0.31051095	      1.14188929	      0.03632261	    121.99152105	     -7.00451455	    -10.46459530	     95.37167104	      1.66454967	     25.28621043	     -3.93198324	      0.00000000	     93.39457630	    -10.27212348	      4.20127597	     46.93421246	      0.81915654	     -2.17630538	     -1.53168718	      0.00000000	     -0.10049582	      1.97228157	      1.10050512	     -0.18663078	      2.62313449	      1.16928669	     -0.16510458	      4.79540540	      1.16928669	     -0.11485667	      4.79540540	      0.96294198	     -0.09332041	      4.02187657	      0.89416041	     -0.05742331	      3.05506415	      0.82537884	     -0.71783156	     22.31084355	      6.12067933	      0.00000000	      0.00000000	      0.00000000	      0.00000000	      0.00000000	     70.38434486	    -11.83496083	      9.15205070	     49.27787855	     67.17758824	      0.00000000	      5.00000014	     62.46590387	     -5.92937678	     -1.46439535	     44.03856241	     65.71485321	      0.00000000	      5.00000014
      7.79200000	    -64.87688747	     -8.72380604	     -4.82917115	     -0.31056569	      1.14245565	      0.03573254	    121.75781703	     -7.59216351	    -10.46298034	     93.15449169	      1.62585259	     24.93325340	     -3.69793335	      0.00000000	     94.01116016	     -9.70090187	      4.44137555	     49.53095037	      0.86447817	     -1.84390733	     -1.65707197	      0.00000000	     -0.09887132	      1.98015527	      0.98385691	     -0.18361393	      2.63360651	      1.04534797	     -0.16243569	      4.81454953	      1.04534797	     -0.11300003	      4.81454953	      0.86087480	     -0.09181191	      4.03793263	      0.79938374	     -0.05649507	      3.06726052	      0.73789268	     -0.70622794	     22.39991247	      5.47191697	      0.00000000	      0.00000000	      0.00000000	      0.00000000	      0.00000000	     70.47614763	    -11.83060725	      9.20806375	     49.27000492	     67.09426141	      0.00000000	      5.00000014	     62.61869031	     -5.89105231	     -1.56593570	     43.89519474	     65.62938518	      0.00000000	      5.00000014
      7.80000000	    -64.87406552	     -8.86643938	     -4.16802549	     -0.31068977	      1.14307714	      0.03504294	    121.29782625	     -8.18278293	    -10.53448174	     90.71982918	      1.58335972	     24.48502865	     -3.44909567	      0.00000000	     94.75990956	     -9.10359793	      4.80111303	     52.29996544	      0.91280660	     -1.44246226	     -1.78574184	      0.00000000	     -0.09826762	      1.99454985	      0.87382995	     -0.18249279	      2.65275129	      0.92844432	     -0.16144387	      4.84954849	      0.92844432	     -0.11231006	      4.84954849	      0.76460121	     -0.09125131	      4.06728604	      0.70998683	     -0.05615012	      3.08955771	      0.65537246	     -0.70191575	     22.56274676	      4.85998003	      0.00000000	      0.00000000	      0.00000000	      0.00000000	      0.00000000	     70.62378531	    -11.85368392	      9.24618660	     49.18654996	     66.99183271	      0.00000000	      5.00000014	     62.79039314	     -5.80851731	     -1.65470895	     43.76972321	     65.52728545	      0.00000000	      5.00000014
